<svg width="243" height="36" viewBox="0 0 243 36" fill="none" xmlns="http://www.w3.org/2000/svg">
<path d="M58.2521 24.119C57.4701 24.119 56.7788 23.983 56.1781 23.711C55.5888 23.439 55.1241 23.0593 54.7841 22.572C54.4441 22.0847 54.2628 21.5407 54.2401 20.94H55.4981C55.5548 21.518 55.8098 22.028 56.2631 22.47C56.7164 22.9007 57.3794 23.116 58.2521 23.116C59.0568 23.116 59.6914 22.912 60.1561 22.504C60.6321 22.0847 60.8701 21.5577 60.8701 20.923C60.8701 20.413 60.7398 20.005 60.4791 19.699C60.2184 19.3817 59.8954 19.1493 59.5101 19.002C59.1248 18.8433 58.5921 18.6733 57.9121 18.492C57.1188 18.2767 56.4898 18.067 56.0251 17.863C55.5604 17.659 55.1638 17.3417 54.8351 16.911C54.5064 16.4803 54.3421 15.8967 54.3421 15.16C54.3421 14.548 54.5008 14.004 54.8181 13.528C55.1354 13.0407 55.5831 12.661 56.1611 12.389C56.7391 12.117 57.4021 11.981 58.1501 11.981C59.2494 11.981 60.1334 12.253 60.8021 12.797C61.4821 13.3297 61.8731 14.021 61.9751 14.871H60.6831C60.6038 14.3837 60.3374 13.953 59.8841 13.579C59.4308 13.1937 58.8188 13.001 58.0481 13.001C57.3341 13.001 56.7391 13.1937 56.2631 13.579C55.7871 13.953 55.5491 14.4687 55.5491 15.126C55.5491 15.6247 55.6794 16.027 55.9401 16.333C56.2008 16.639 56.5238 16.8713 56.9091 17.03C57.3058 17.1887 57.8384 17.3587 58.5071 17.54C59.2778 17.7553 59.9011 17.9707 60.3771 18.186C60.8531 18.39 61.2554 18.7073 61.5841 19.138C61.9128 19.5687 62.0771 20.1467 62.0771 20.872C62.0771 21.4273 61.9298 21.9543 61.6351 22.453C61.3404 22.9517 60.9041 23.354 60.3261 23.66C59.7481 23.966 59.0568 24.119 58.2521 24.119ZM64.9716 12.967C64.7336 12.967 64.5296 12.882 64.3596 12.712C64.1896 12.542 64.1046 12.3323 64.1046 12.083C64.1046 11.8337 64.1896 11.6297 64.3596 11.471C64.5296 11.301 64.7336 11.216 64.9716 11.216C65.2096 11.216 65.4136 11.301 65.5836 11.471C65.7536 11.6297 65.8386 11.8337 65.8386 12.083C65.8386 12.3323 65.7536 12.542 65.5836 12.712C65.4136 12.882 65.2096 12.967 64.9716 12.967ZM65.5666 14.718V24H64.3766V14.718H65.5666ZM72.1544 14.582C73.027 14.582 73.7864 14.786 74.4324 15.194C75.0784 15.602 75.543 16.1177 75.8264 16.741V14.718H77.0164V24.238C77.0164 25.088 76.8294 25.8417 76.4554 26.499C76.0927 27.1563 75.5827 27.6607 74.9254 28.012C74.268 28.3747 73.52 28.556 72.6814 28.556C71.4914 28.556 70.4997 28.2727 69.7064 27.706C68.9244 27.1393 68.437 26.3687 68.2444 25.394H69.4174C69.6214 26.04 70.0067 26.5557 70.5734 26.941C71.1514 27.3263 71.854 27.519 72.6814 27.519C73.282 27.519 73.8204 27.3887 74.2964 27.128C74.7724 26.8787 75.1464 26.5047 75.4184 26.006C75.6904 25.5073 75.8264 24.918 75.8264 24.238V21.943C75.5317 22.5777 75.0614 23.1047 74.4154 23.524C73.7807 23.932 73.027 24.136 72.1544 24.136C71.3044 24.136 70.5394 23.9377 69.8594 23.541C69.1907 23.1443 68.6637 22.5833 68.2784 21.858C67.9044 21.1327 67.7174 20.294 67.7174 19.342C67.7174 18.39 67.9044 17.557 68.2784 16.843C68.6637 16.1177 69.1907 15.5623 69.8594 15.177C70.5394 14.7803 71.3044 14.582 72.1544 14.582ZM75.8264 19.359C75.8264 18.611 75.6734 17.9537 75.3674 17.387C75.0614 16.8203 74.642 16.384 74.1094 16.078C73.588 15.772 73.01 15.619 72.3754 15.619C71.718 15.619 71.1287 15.7663 70.6074 16.061C70.086 16.3557 69.6724 16.7863 69.3664 17.353C69.0717 17.9083 68.9244 18.5713 68.9244 19.342C68.9244 20.1013 69.0717 20.77 69.3664 21.348C69.6724 21.9147 70.086 22.351 70.6074 22.657C71.1287 22.9517 71.718 23.099 72.3754 23.099C73.01 23.099 73.588 22.946 74.1094 22.64C74.642 22.334 75.0614 21.8977 75.3674 21.331C75.6734 20.7643 75.8264 20.107 75.8264 19.359ZM84.085 14.548C85.1957 14.548 86.1024 14.8937 86.805 15.585C87.5077 16.265 87.859 17.2567 87.859 18.56V24H86.686V18.696C86.686 17.6873 86.431 16.9167 85.921 16.384C85.4224 15.8513 84.7367 15.585 83.864 15.585C82.9687 15.585 82.2547 15.8683 81.722 16.435C81.1894 17.0017 80.923 17.8347 80.923 18.934V24H79.733V14.718H80.923V16.299C81.2177 15.7323 81.6427 15.3017 82.198 15.007C82.7534 14.701 83.3824 14.548 84.085 14.548ZM96.2949 12.117V19.597C96.2949 20.7757 96.5726 21.6483 97.1279 22.215C97.6946 22.7817 98.4652 23.065 99.4399 23.065C100.415 23.065 101.174 22.7873 101.718 22.232C102.273 21.6653 102.551 20.787 102.551 19.597V12.117H103.741V19.58C103.741 21.0873 103.339 22.2207 102.534 22.98C101.741 23.7393 100.704 24.119 99.4229 24.119C98.1422 24.119 97.0996 23.7393 96.2949 22.98C95.5016 22.2207 95.1049 21.0873 95.1049 19.58V12.117H96.2949ZM107.568 16.758C107.863 16.1347 108.327 15.619 108.962 15.211C109.608 14.7917 110.373 14.582 111.257 14.582C112.096 14.582 112.849 14.7803 113.518 15.177C114.198 15.5623 114.725 16.1177 115.099 16.843C115.484 17.557 115.677 18.39 115.677 19.342C115.677 20.294 115.484 21.1327 115.099 21.858C114.725 22.5833 114.198 23.1443 113.518 23.541C112.849 23.9377 112.096 24.136 111.257 24.136C110.384 24.136 109.625 23.932 108.979 23.524C108.333 23.1047 107.863 22.5833 107.568 21.96V28.386H106.395V14.718H107.568V16.758ZM114.47 19.342C114.47 18.5713 114.317 17.9083 114.011 17.353C113.716 16.7863 113.308 16.3557 112.787 16.061C112.266 15.7663 111.676 15.619 111.019 15.619C110.384 15.619 109.801 15.772 109.268 16.078C108.747 16.384 108.333 16.8203 108.027 17.387C107.721 17.9537 107.568 18.611 107.568 19.359C107.568 20.107 107.721 20.7643 108.027 21.331C108.333 21.8977 108.747 22.334 109.268 22.64C109.801 22.946 110.384 23.099 111.019 23.099C111.676 23.099 112.266 22.9517 112.787 22.657C113.308 22.351 113.716 21.9147 114.011 21.348C114.317 20.77 114.47 20.1013 114.47 19.342ZM134.772 14.718L131.865 24H130.675L128.108 16.214L125.541 24H124.334L121.427 14.718H122.634L124.946 22.793L127.547 14.718H128.737L131.304 22.81L133.599 14.718H134.772ZM136.989 12.967C136.751 12.967 136.547 12.882 136.377 12.712C136.207 12.542 136.122 12.3323 136.122 12.083C136.122 11.8337 136.207 11.6297 136.377 11.471C136.547 11.301 136.751 11.216 136.989 11.216C137.227 11.216 137.431 11.301 137.601 11.471C137.771 11.6297 137.856 11.8337 137.856 12.083C137.856 12.3323 137.771 12.542 137.601 12.712C137.431 12.882 137.227 12.967 136.989 12.967ZM137.584 14.718V24H136.394V14.718H137.584ZM141.826 15.721V21.484C141.826 22.0507 141.934 22.4417 142.149 22.657C142.364 22.8723 142.744 22.98 143.288 22.98H144.376V24H143.101C142.262 24 141.639 23.8073 141.231 23.422C140.823 23.0253 140.619 22.3793 140.619 21.484V15.721H139.327V14.718H140.619V12.389H141.826V14.718H144.376V15.721H141.826ZM150.759 14.548C151.461 14.548 152.09 14.6953 152.646 14.99C153.212 15.2847 153.654 15.738 153.972 16.35C154.3 16.9507 154.465 17.6873 154.465 18.56V24H153.292V18.696C153.292 17.6873 153.037 16.9167 152.527 16.384C152.028 15.8513 151.342 15.585 150.47 15.585C149.574 15.585 148.86 15.8683 148.328 16.435C147.795 17.0017 147.529 17.8347 147.529 18.934V24H146.339V11.42H147.529V16.299C147.823 15.7437 148.254 15.313 148.821 15.007C149.399 14.701 150.045 14.548 150.759 14.548ZM168.187 12.117V13.103H162.951V17.54H167.371V18.526H162.951V24H161.761V12.117H168.187ZM169.601 19.342C169.601 18.39 169.788 17.557 170.162 16.843C170.547 16.1177 171.074 15.5623 171.743 15.177C172.423 14.7803 173.188 14.582 174.038 14.582C174.922 14.582 175.681 14.786 176.316 15.194C176.962 15.602 177.427 16.1233 177.71 16.758V14.718H178.9V24H177.71V21.943C177.415 22.5777 176.945 23.1047 176.299 23.524C175.664 23.932 174.905 24.136 174.021 24.136C173.182 24.136 172.423 23.9377 171.743 23.541C171.074 23.1443 170.547 22.5833 170.162 21.858C169.788 21.1327 169.601 20.294 169.601 19.342ZM177.71 19.359C177.71 18.611 177.557 17.9537 177.251 17.387C176.945 16.8203 176.526 16.384 175.993 16.078C175.472 15.772 174.894 15.619 174.259 15.619C173.602 15.619 173.012 15.7663 172.491 16.061C171.97 16.3557 171.556 16.7863 171.25 17.353C170.955 17.9083 170.808 18.5713 170.808 19.342C170.808 20.1013 170.955 20.77 171.25 21.348C171.556 21.9147 171.97 22.351 172.491 22.657C173.012 22.9517 173.602 23.099 174.259 23.099C174.894 23.099 175.472 22.946 175.993 22.64C176.526 22.334 176.945 21.8977 177.251 21.331C177.557 20.7643 177.71 20.107 177.71 19.359ZM181.073 19.359C181.073 18.3957 181.266 17.557 181.651 16.843C182.036 16.1177 182.569 15.5623 183.249 15.177C183.929 14.7803 184.705 14.582 185.578 14.582C186.723 14.582 187.663 14.8653 188.4 15.432C189.148 15.9987 189.63 16.7693 189.845 17.744H188.57C188.411 17.0753 188.066 16.554 187.533 16.18C187.012 15.7947 186.36 15.602 185.578 15.602C184.955 15.602 184.394 15.7437 183.895 16.027C183.396 16.3103 183 16.7353 182.705 17.302C182.422 17.8573 182.28 18.543 182.28 19.359C182.28 20.175 182.422 20.8663 182.705 21.433C183 21.9997 183.396 22.4247 183.895 22.708C184.394 22.9913 184.955 23.133 185.578 23.133C186.36 23.133 187.012 22.946 187.533 22.572C188.066 22.1867 188.411 21.654 188.57 20.974H189.845C189.63 21.926 189.148 22.691 188.4 23.269C187.652 23.847 186.711 24.136 185.578 24.136C184.705 24.136 183.929 23.9433 183.249 23.558C182.569 23.1613 182.036 22.606 181.651 21.892C181.266 21.1667 181.073 20.3223 181.073 19.359ZM200.441 18.883C200.441 19.291 200.429 19.6027 200.407 19.818H192.706C192.74 20.5207 192.91 21.1213 193.216 21.62C193.522 22.1187 193.924 22.4983 194.423 22.759C194.921 23.0083 195.465 23.133 196.055 23.133C196.825 23.133 197.471 22.946 197.993 22.572C198.525 22.198 198.877 21.6937 199.047 21.059H200.305C200.078 21.9657 199.591 22.708 198.843 23.286C198.106 23.8527 197.177 24.136 196.055 24.136C195.182 24.136 194.4 23.9433 193.709 23.558C193.017 23.1613 192.473 22.606 192.077 21.892C191.691 21.1667 191.499 20.3223 191.499 19.359C191.499 18.3957 191.691 17.5513 192.077 16.826C192.462 16.1007 193 15.5453 193.692 15.16C194.383 14.7747 195.171 14.582 196.055 14.582C196.939 14.582 197.709 14.7747 198.367 15.16C199.035 15.5453 199.545 16.0667 199.897 16.724C200.259 17.37 200.441 18.0897 200.441 18.883ZM199.234 18.849C199.245 18.1577 199.103 17.5683 198.809 17.081C198.525 16.5937 198.134 16.2253 197.636 15.976C197.137 15.7267 196.593 15.602 196.004 15.602C195.12 15.602 194.366 15.8853 193.743 16.452C193.119 17.0187 192.774 17.8177 192.706 18.849H199.234ZM203.791 16.775C204.097 16.129 204.567 15.602 205.202 15.194C205.848 14.786 206.607 14.582 207.48 14.582C208.33 14.582 209.089 14.7803 209.758 15.177C210.426 15.5623 210.948 16.1177 211.322 16.843C211.707 17.557 211.9 18.39 211.9 19.342C211.9 20.294 211.707 21.1327 211.322 21.858C210.948 22.5833 210.421 23.1443 209.741 23.541C209.072 23.9377 208.318 24.136 207.48 24.136C206.596 24.136 205.831 23.9377 205.185 23.541C204.55 23.133 204.085 22.606 203.791 21.96V24H202.618V11.42H203.791V16.775ZM210.693 19.342C210.693 18.5713 210.54 17.9083 210.234 17.353C209.939 16.7863 209.531 16.3557 209.01 16.061C208.488 15.7663 207.899 15.619 207.242 15.619C206.607 15.619 206.023 15.772 205.491 16.078C204.969 16.384 204.556 16.8203 204.25 17.387C203.944 17.9537 203.791 18.611 203.791 19.359C203.791 20.107 203.944 20.7643 204.25 21.331C204.556 21.8977 204.969 22.334 205.491 22.64C206.023 22.946 206.607 23.099 207.242 23.099C207.899 23.099 208.488 22.9517 209.01 22.657C209.531 22.351 209.939 21.9147 210.234 21.348C210.54 20.77 210.693 20.1013 210.693 19.342ZM218.152 24.136C217.28 24.136 216.492 23.9433 215.789 23.558C215.098 23.1613 214.548 22.606 214.14 21.892C213.744 21.1667 213.545 20.3223 213.545 19.359C213.545 18.3957 213.749 17.557 214.157 16.843C214.565 16.1177 215.121 15.5623 215.823 15.177C216.526 14.7803 217.314 14.582 218.186 14.582C219.059 14.582 219.847 14.7803 220.549 15.177C221.263 15.5623 221.819 16.1177 222.215 16.843C222.623 17.557 222.827 18.3957 222.827 19.359C222.827 20.311 222.623 21.1497 222.215 21.875C221.807 22.6003 221.246 23.1613 220.532 23.558C219.818 23.9433 219.025 24.136 218.152 24.136ZM218.152 23.099C218.764 23.099 219.331 22.963 219.852 22.691C220.374 22.4077 220.793 21.9883 221.11 21.433C221.439 20.8663 221.603 20.175 221.603 19.359C221.603 18.543 221.445 17.8573 221.127 17.302C220.81 16.7353 220.391 16.316 219.869 16.044C219.348 15.7607 218.781 15.619 218.169 15.619C217.557 15.619 216.991 15.7607 216.469 16.044C215.948 16.316 215.529 16.7353 215.211 17.302C214.905 17.8573 214.752 18.543 214.752 19.359C214.752 20.175 214.905 20.8663 215.211 21.433C215.529 21.9883 215.942 22.4077 216.452 22.691C216.974 22.963 217.54 23.099 218.152 23.099ZM229.06 24.136C228.187 24.136 227.399 23.9433 226.697 23.558C226.005 23.1613 225.456 22.606 225.048 21.892C224.651 21.1667 224.453 20.3223 224.453 19.359C224.453 18.3957 224.657 17.557 225.065 16.843C225.473 16.1177 226.028 15.5623 226.731 15.177C227.433 14.7803 228.221 14.582 229.094 14.582C229.966 14.582 230.754 14.7803 231.457 15.177C232.171 15.5623 232.726 16.1177 233.123 16.843C233.531 17.557 233.735 18.3957 233.735 19.359C233.735 20.311 233.531 21.1497 233.123 21.875C232.715 22.6003 232.154 23.1613 231.44 23.558C230.726 23.9433 229.932 24.136 229.06 24.136ZM229.06 23.099C229.672 23.099 230.238 22.963 230.76 22.691C231.281 22.4077 231.7 21.9883 232.018 21.433C232.346 20.8663 232.511 20.175 232.511 19.359C232.511 18.543 232.352 17.8573 232.035 17.302C231.717 16.7353 231.298 16.316 230.777 16.044C230.255 15.7607 229.689 15.619 229.077 15.619C228.465 15.619 227.898 15.7607 227.377 16.044C226.855 16.316 226.436 16.7353 226.119 17.302C225.813 17.8573 225.66 18.543 225.66 19.359C225.66 20.175 225.813 20.8663 226.119 21.433C226.436 21.9883 226.85 22.4077 227.36 22.691C227.881 22.963 228.448 23.099 229.06 23.099ZM240.919 24L237.094 19.835V24H235.904V11.42H237.094V18.866L240.834 14.718H242.5L238.097 19.342L242.534 24H240.919Z" fill="black"/>
<circle cx="18" cy="18" r="15.75" fill="url(#paint0_linear_92_447)"/>
<path d="M23.8654 22.8167L24.565 18.3714H20.1884V15.4879C20.1884 14.2714 20.7986 13.085 22.7589 13.085H24.75V9.30036C24.75 9.30036 22.9438 9 21.2178 9C17.6117 9 15.2569 11.1296 15.2569 14.9833V18.3714H11.25V22.8167H15.2569V33.5638C16.0613 33.6869 16.8843 33.75 17.7226 33.75C18.561 33.75 19.3839 33.6869 20.1884 33.5638V22.8167H23.8654Z" fill="white"/>
<defs>
<linearGradient id="paint0_linear_92_447" x1="18" y1="2.25" x2="18" y2="33.6566" gradientUnits="userSpaceOnUse">
<stop stop-color="#18ACFE"/>
<stop offset="1" stop-color="#0163E0"/>
</linearGradient>
</defs>
</svg>
