<svg width="36" height="36" viewBox="0 0 36 36" fill="none" xmlns="http://www.w3.org/2000/svg">
<path d="M33.7518 18.3498C33.7518 17.0548 33.6446 16.1098 33.4125 15.1298H18.3232V20.9748H27.1803C27.0018 22.4273 26.0375 24.6148 23.8946 26.0847L23.8646 26.2804L28.6355 29.9025L28.9661 29.9348C32.0017 27.1873 33.7518 23.1448 33.7518 18.3498Z" fill="#4285F4"/>
<path d="M18.322 33.7499C22.6612 33.7499 26.304 32.3498 28.9648 29.9349L23.8933 26.0848C22.5362 27.0123 20.7148 27.6598 18.322 27.6598C14.072 27.6598 10.4649 24.9123 9.17908 21.1148L8.99061 21.1305L4.02972 24.893L3.96484 25.0698C6.60766 30.2148 12.0362 33.7499 18.322 33.7499Z" fill="#34A853"/>
<path d="M9.18045 21.1151C8.84117 20.1351 8.64482 19.085 8.64482 18.0001C8.64482 16.915 8.84117 15.865 9.1626 14.8851L9.15361 14.6763L4.13054 10.8534L3.9662 10.93C2.87696 13.065 2.25195 15.4626 2.25195 18.0001C2.25195 20.5376 2.87696 22.935 3.9662 25.07L9.18045 21.1151Z" fill="#FBBC05"/>
<path d="M18.3221 8.33996C21.3399 8.33996 23.3755 9.61745 24.5363 10.685L29.072 6.345C26.2864 3.80751 22.6613 2.25 18.3221 2.25C12.0363 2.25 6.60768 5.78497 3.96484 10.9299L9.16126 14.885C10.465 11.0875 14.0721 8.33996 18.3221 8.33996Z" fill="#EB4335"/>
</svg>
