<svg width="55" height="47" viewBox="0 0 55 47" fill="none" xmlns="http://www.w3.org/2000/svg">
<path d="M19.0153 5.01501C19.0153 7.12701 20.7313 8.83801 22.8473 8.83801C24.7613 8.83801 26.3433 7.43601 26.6283 5.60601L29.1833 6.32001L29.3913 5.58401L27.4123 5.03101C27.6453 2.89401 26.3093 0.841007 24.1653 0.242007C21.7783 -0.424993 19.3013 0.966007 18.6333 3.34601L19.3123 3.53601C19.1223 3.99101 19.0153 4.49101 19.0153 5.01501Z" fill="#0C80D9"/>
<path d="M50.6642 33.395C50.6642 33.395 49.2332 35.666 48.0182 38.316C46.1612 28.169 41.2042 26.566 41.2042 26.566C41.2042 26.566 39.9502 28.154 38.4262 30.511L30.8472 26.817C30.9492 26.2 30.8152 25.531 30.3262 24.931C27.3552 21.289 26.7402 16.058 24.3172 12.066C24.2182 11.904 24.1102 11.762 23.9932 11.638C23.0492 9.84399 20.8382 8.90999 18.9502 9.27299C12.8462 7.54199 7.56719 9.207 4.77619 15.232C3.56619 17.844 7.34119 20.133 8.66519 17.706L13.6012 20.112C12.9482 21.794 12.2062 23.444 11.3592 25.064C8.30919 30.045 4.41019 34.517 0.593195 38.92C-1.33781 41.147 1.90219 44.406 3.84419 42.164C6.96419 38.564 10.1482 34.91 12.9292 31.006C13.2172 31.187 13.5202 31.34 13.8352 31.455C14.0332 31.603 14.2662 31.727 14.5372 31.817C16.5562 32.487 18.3672 33.584 20.0342 34.877C18.8852 37.6 17.7632 40.353 15.9742 42.723C14.1872 45.088 18.1842 47.371 19.9452 45.039C22.1392 42.133 23.3292 38.645 24.7992 35.351C25.2002 34.453 25.2762 33.289 24.4402 32.571C22.7832 31.147 21.0432 29.881 19.1522 28.865C19.9792 27.248 20.7392 25.599 21.4192 23.922L25.5502 25.936C25.9962 26.714 26.4932 27.464 27.0722 28.175C28.0362 29.359 29.3632 29.063 30.1672 28.187L37.6052 31.812C35.4152 35.402 33.0342 40.187 33.0342 44.046H46.3372L54.0892 44.137C53.7282 40.894 50.6642 33.395 50.6642 33.395ZM14.1352 18.671L9.34719 16.338C10.0342 15.073 10.9202 13.911 12.3142 13.377C13.4102 12.957 14.5902 12.987 15.7462 13.194C15.2992 15.057 14.7672 16.883 14.1352 18.671ZM21.9772 22.495C22.3002 21.635 22.6012 20.767 22.8842 19.894C23.3772 21.167 23.8622 22.443 24.4162 23.684L21.9772 22.495Z" fill="#0C80D9"/>
</svg>
