<svg width="60" height="50" viewBox="0 0 60 50" fill="none" xmlns="http://www.w3.org/2000/svg">
<path d="M9.98829 8.4475C12.2317 8.4475 14.0503 6.62887 14.0503 4.38548C14.0503 2.14208 12.2317 0.323456 9.98829 0.323456C7.7449 0.323456 5.92627 2.14208 5.92627 4.38548C5.92627 6.62887 7.7449 8.4475 9.98829 8.4475Z" fill="#0C80D9"/>
<path d="M15.2327 9.74243C13.9261 9.74243 6.02202 9.74243 4.71062 9.74243C2.16589 9.74243 0.0851104 11.8128 0.072468 14.3575L2.50809e-05 28.7564C-0.00539309 29.8388 0.867735 30.7208 1.95016 30.7262C1.95358 30.7262 1.95679 30.7262 1.9602 30.7262C3.03801 30.7262 3.91455 29.8551 3.91997 28.7761L3.99241 14.3768C3.99342 14.1681 4.16319 13.9997 4.37189 14.0001C4.58059 14.0007 4.74935 14.1699 4.74935 14.3786L4.75036 47.3245C4.75036 48.6234 5.80329 49.6763 7.10224 49.6763C8.4012 49.6763 9.45413 48.6234 9.45413 47.3245V28.525H10.4695V47.3245C10.4695 48.6234 11.5225 49.6763 12.8214 49.6763C14.1204 49.6763 15.1733 48.6234 15.1733 47.3245C15.1733 30.1713 15.1318 31.0246 15.1306 14.3589C15.1306 14.1324 15.3142 13.9485 15.5407 13.9485C15.7673 13.9485 15.9509 14.1322 15.9511 14.3587C15.9511 14.3645 15.9509 14.3704 15.9509 14.3764L16.0234 28.7755C16.0288 29.8545 16.9051 30.7256 17.9831 30.7256C17.9863 30.7256 17.99 30.7256 17.9932 30.7256C19.0756 30.7202 19.9487 29.8382 19.9433 28.7558L19.8709 14.3567C19.8582 11.8126 17.7776 9.74243 15.2327 9.74243Z" fill="#0C80D9"/>
<path d="M37.968 45.7905C37.7759 47.0325 38.627 48.1952 39.8691 48.3872C41.1141 48.5793 42.2742 47.7258 42.4659 46.486L43.7187 38.3857H39.1132L37.968 45.7905Z" fill="#0C80D9"/>
<path d="M32.1679 38.3857H27.5625L28.8153 46.486C28.9891 47.6102 29.9581 48.4143 31.0614 48.4143C32.4667 48.4143 33.5253 47.1625 33.3132 45.7905L32.1679 38.3857Z" fill="#0C80D9"/>
<path d="M35.6486 15.229C37.8207 15.229 39.579 13.4691 39.579 11.2987C39.579 9.12819 37.8195 7.36829 35.6486 7.36829C33.478 7.36829 31.7183 9.12779 31.7183 11.2987C31.7185 13.4744 33.4824 15.229 35.6486 15.229Z" fill="#0C80D9"/>
<path d="M59.1696 32.3242H58.1694C58.7219 32.3242 59.1696 31.8765 59.1696 31.324C59.1696 28.0759 59.1696 26.7758 59.1696 25.3018C59.1696 24.7494 58.7219 24.3017 58.1694 24.3017H56.8706V22.3435C56.8706 21.9721 56.5694 21.6708 56.198 21.6708H51.6911C51.3196 21.6708 51.0184 21.9721 51.0184 22.3435V24.3017H49.7199C49.2114 24.3017 48.7924 24.6815 48.7289 25.1728C48.7145 25.2844 48.7197 24.8928 48.7197 31.324C48.7197 31.8765 49.1674 32.3242 49.7199 32.3242H40.6505V29.941L46.2039 27.4948C47.1392 27.0828 47.5799 26.0036 47.2 25.0546C46.7214 23.8566 45.5244 21.1276 44.4502 18.919C43.7304 17.4384 42.2011 16.4818 40.5543 16.4818C36.1233 16.4818 35.0146 16.4818 30.1506 16.4818C29.7218 16.4818 29.306 16.6269 28.9705 16.8938L23.3185 21.3877C22.9742 21.6616 22.7356 22.0467 22.6441 22.4769L21.0776 29.8292C20.8278 31.0019 21.7204 32.1211 22.9342 32.1211C23.8278 32.1211 24.6012 31.4916 24.7871 30.6194L26.2116 23.9328L30.6056 20.4391V32.324H21.5247C21.0662 32.324 20.6943 32.6958 20.6943 33.1544V36.1564C20.6943 36.615 21.0662 36.9868 21.5247 36.9868H22.4444V38.3857V48.8462C22.4444 49.3047 22.8161 49.6766 23.2748 49.6766H26.2767C26.7352 49.6766 27.107 49.3047 27.107 48.8462V38.3857V36.9868H53.3896V38.3857V48.8462C53.3896 49.3047 53.7614 49.6766 54.22 49.6766H57.2218C57.6804 49.6766 58.0522 49.3047 58.0522 48.8462V38.3857V36.9868H59.169C59.6275 36.9868 59.9991 36.6154 59.9993 36.1568C59.9993 36.1566 59.9993 36.1566 59.9993 36.1562V33.1541C59.9995 33.1543 59.9995 33.1539 59.9995 33.1539C59.9995 32.6956 59.6279 32.3242 59.1696 32.3242ZM40.6505 20.6675C40.6505 20.5722 40.7163 20.4893 40.8094 20.4678C40.9025 20.4463 40.9978 20.4919 41.0396 20.5778C41.6877 21.9104 42.4086 23.4966 42.9656 24.7767L40.6505 25.7965V20.6675ZM55.5253 24.3015H52.3637V23.016H55.5253V24.3015Z" fill="#0C80D9"/>
</svg>
